<svg xmlns="http://www.w3.org/2000/svg" version="1.0" viewBox="0 0 74 74" id="food-parcel" width="48" height="48"><path fill="#ff003b" d="M47.06 23.59v43.14c0 1.25-1.02 2.27-2.27 2.27H7.01c-1.25 0-2.27-1.01-2.27-2.27V23.59c0-1.25 1.02-2.27 2.27-2.27h37.78c1.25 0 2.27 1.02 2.27 2.27z"></path><path fill="#343434" d="M47.06 23.59v43.14c0 1.25-1.02 2.27-2.27 2.27H7.01c-1.25 0-2.27-1.01-2.27-2.27V23.59c0-1.25 1.02-2.27 2.27-2.27h37.78c1.25 0 2.27 1.02 2.27 2.27z" opacity=".2"></path><path fill="#ff003b" d="M7.01 67.5a.77.77 0 0 1-.77-.77V23.59c0-.42.34-.77.77-.77h37.78c.42 0 .77.34.77.77v43.14c0 .42-.34.77-.77.77H7.01z"></path><path d="M44.79 69.5H7.01a2.77 2.77 0 0 1-2.77-2.77V23.59a2.77 2.77 0 0 1 2.77-2.77h37.78a2.77 2.77 0 0 1 2.77 2.77v43.14a2.77 2.77 0 0 1-2.77 2.77zM7.01 21.82c-.97 0-1.77.79-1.77 1.77v43.14c0 .97.79 1.77 1.77 1.77h37.78c.97 0 1.77-.79 1.77-1.77V23.59c0-.97-.79-1.77-1.77-1.77H7.01z"></path><path fill="#343434" d="M19.4 5h13v4.59h-13z"></path><path fill="#e6e6e6" d="M36.99 9.59v11.73H32.4V5zM14.82 9.59v11.73h4.58V5z"></path><path fill="#343434" d="M14.82 9.59v11.73h4.58V5z" opacity=".2"></path><path fill="#e6e6e6" d="M16.31 19.82v-9.61l1.59-1.59v11.2z"></path><path d="M32.4 10.09h-13c-.28 0-.5-.22-.5-.5V5c0-.28.22-.5.5-.5h13c.28 0 .5.22.5.5v4.59c0 .27-.22.5-.5.5zm-12.5-1h12V5.5h-12v3.59z"></path><path d="M36.99 21.82H32.4c-.28 0-.5-.22-.5-.5V5a.499.499 0 0 1 .85-.35l4.59 4.59c.09.09.15.22.15.35v11.74c0 .27-.22.49-.5.49zm-4.09-1h3.59V9.79L32.9 6.21v14.61zm-13.5 1h-4.59c-.28 0-.5-.22-.5-.5V9.59c0-.13.05-.26.15-.35l4.59-4.59a.499.499 0 0 1 .85.35v16.32c0 .28-.22.5-.5.5zm-4.09-1h3.59V6.21L15.31 9.8v11.02z"></path><path fill="#343434" d="M19.4 5h13v4.59h-13z"></path><path fill="#343434" d="M19.4 5h13v4.59h-13z" opacity=".2"></path><path fill="#343434" d="M20.9 6.5h10v1.59h-10z"></path><path fill="#e6e6e6" d="M36.99 9.59v11.73H32.4V5z"></path><path fill="#343434" d="M36.99 9.59v11.73H32.4V5z" opacity=".2"></path><path fill="#e6e6e6" d="M33.9 19.82V8.62l1.59 1.59v9.61z"></path><path d="M32.4 10.09h-13c-.28 0-.5-.22-.5-.5V5c0-.28.22-.5.5-.5h13c.28 0 .5.22.5.5v4.59c0 .27-.22.5-.5.5zm-12.5-1h12V5.5h-12v3.59z"></path><path d="M36.99 21.82H32.4c-.28 0-.5-.22-.5-.5V5a.499.499 0 0 1 .85-.35l4.59 4.59c.09.09.15.22.15.35v11.74c0 .27-.22.49-.5.49zm-4.09-1h3.59V9.79L32.9 6.21v14.61zm-13.5 1h-4.59c-.28 0-.5-.22-.5-.5V9.59c0-.13.05-.26.15-.35l4.59-4.59a.499.499 0 0 1 .85.35v16.32c0 .28-.22.5-.5.5zm-4.09-1h3.59V6.21L15.31 9.8v11.02z"></path><path fill="#e6e6e6" d="M25.85 34.34v7.75c0 .88-.4 1.71-1.08 2.27l-1.2.97c-.49.4-.76 1.02-.71 1.65l1.03 14.04a2.378 2.378 0 1 1-4.75.19c0-.06.01-.13.01-.18l1.03-14.04c.05-.63-.22-1.25-.71-1.65l-1.2-.97a2.929 2.929 0 0 1-1.08-2.27v-7.75c0-.43.35-.78.79-.78.43 0 .78.35.78.78v6.98h1.99v-6.98c0-.43.34-.78.78-.78s.78.35.78.78v6.98h1.99v-6.98c0-.43.35-.78.79-.78.41-.01.76.34.76.77zm8.78 27.22c.08 1.08-.78 2-1.86 2-1.04 0-1.87-.84-1.87-1.86 0-.05.01-.1.01-.14l.84-11.51c-.96-1.62-1.59-4.37-1.59-7.48 0-4.98 1.62-9.02 3.61-9.02v16.22l.86 11.79z"></path><path d="M21.51 64.07c-1.59 0-2.88-1.29-2.88-2.87l.01-.13 1.03-14.13c.03-.47-.16-.93-.53-1.23l-1.2-.97c-.8-.65-1.26-1.62-1.26-2.65v-7.75c0-.71.58-1.28 1.29-1.28.71 0 1.28.57 1.28 1.28v6.48h.99v-6.48c0-.71.57-1.28 1.28-1.28s1.28.57 1.28 1.28v6.48h.99v-6.48c0-.71.58-1.28 1.29-1.28.71 0 1.28.57 1.28 1.28v7.75c0 1.03-.46 2-1.27 2.65l-1.2.97c-.37.3-.56.76-.53 1.23l1.02 14.04c.06.79-.21 1.58-.76 2.17-.54.58-1.31.92-2.11.92zm-3.55-30.01c-.16 0-.29.13-.29.28v7.75c0 .73.33 1.42.89 1.88l1.2.97c.62.5.96 1.28.9 2.08l-1.03 14.04-.51.15h.5c0 1.03.84 1.87 1.88 1.87.53 0 1.02-.21 1.38-.6.36-.39.53-.89.49-1.42l-1.02-14.04c-.06-.8.28-1.57.9-2.08l1.2-.97c.57-.46.9-1.15.9-1.88v-7.75c0-.15-.13-.28-.28-.28-.16 0-.29.13-.29.28v6.98c0 .28-.22.5-.5.5h-1.99c-.28 0-.5-.22-.5-.5v-6.98c0-.31-.56-.31-.56 0v6.98c0 .28-.22.5-.5.5h-1.99c-.28 0-.5-.22-.5-.5v-6.98a.28.28 0 0 0-.28-.28zm14.81 30.01c-1.31 0-2.37-1.06-2.37-2.36 0-.01 0-.1.01-.11l.83-11.42c-.99-1.77-1.58-4.59-1.58-7.59 0-5.34 1.81-9.52 4.11-9.52.28 0 .5.22.5.5v16.22l.86 11.75c.05.65-.18 1.3-.62 1.78-.45.47-1.09.75-1.74.75zm.49-29.88c-1.32.68-2.61 3.93-2.61 8.39 0 2.91.57 5.61 1.52 7.22a.5.5 0 0 1 .07.29L31.4 61.6l-.51.1.5.01a1.364 1.364 0 0 0 2.37.92c.26-.28.39-.65.36-1.03l-.86-11.79V34.19z"></path><path fill="#ff9f3f" d="M67.03 48.93H38.47c-.65 0-1.2-.5-1.15-1.09.29-3.03 1.76-5.76 3.98-7.78 2.48-2.29 5.94-3.68 9.73-3.68h3.44c7.2 0 13.1 5.03 13.71 11.46.05.59-.5 1.09-1.15 1.09z"></path><path fill="#343434" d="M67.03 48.93H38.47c-.65 0-1.2-.5-1.15-1.09.29-3.03 1.76-5.76 3.98-7.78 2.48-2.29 5.94-3.68 9.73-3.68h3.44c7.2 0 13.1 5.03 13.71 11.46.05.59-.5 1.09-1.15 1.09z" opacity=".2"></path><path fill="#ff9f3f" d="M38.88 47.43c.36-2.35 1.56-4.56 3.43-6.27 2.3-2.12 5.4-3.29 8.71-3.29h3.44c6.11 0 11.33 4.15 12.14 9.55H38.88zm29.34 15.9v1.52c0 2.3-2.04 4.16-4.56 4.16H42.42c-2.52 0-4.56-1.86-4.56-4.16v-1.52c0-.57.51-1.04 1.14-1.04h28.08c.64 0 1.14.46 1.14 1.04z"></path><path fill="#343434" d="M68.22 63.33v1.52c0 2.3-2.04 4.16-4.56 4.16H42.42c-2.52 0-4.56-1.86-4.56-4.16v-1.52c0-.57.51-1.04 1.14-1.04h28.08c.64 0 1.14.46 1.14 1.04z" opacity=".2"></path><path fill="#ff9f3f" d="M42.42 67.5c-1.68 0-3.06-1.19-3.06-2.66v-1.06h27.36v1.06c0 1.46-1.37 2.66-3.06 2.66H42.42z"></path><path fill="#963" d="M36.29 50.63c0 .94.83 2.75 1.86 2.75h29.24c1.03 0 1.86-1.81 1.86-2.75s-.83-1.7-1.86-1.7H38.15c-1.03 0-1.86.76-1.86 1.7z"></path><path fill="#343434" d="M36.29 50.63c0 .94.83 2.75 1.86 2.75h29.24c1.03 0 1.86-1.81 1.86-2.75s-.83-1.7-1.86-1.7H38.15c-1.03 0-1.86.76-1.86 1.7z" opacity=".2"></path><path fill="#963" d="M38.33 51.88c-.23-.24-.54-.93-.54-1.25 0-.07.14-.2.36-.2h29.24c.22 0 .36.13.36.2 0 .32-.31 1.01-.54 1.25H38.33z"></path><path fill="#84c100" d="M36.29 55.08c0 .94.83 2.75 1.86 2.75h29.24c1.03 0 1.86-1.81 1.86-2.75s-.83-1.7-1.86-1.7H38.15c-1.03 0-1.86.76-1.86 1.7z"></path><path fill="#343434" d="M36.29 55.08c0 .94.83 2.75 1.86 2.75h29.24c1.03 0 1.86-1.81 1.86-2.75s-.83-1.7-1.86-1.7H38.15c-1.03 0-1.86.76-1.86 1.7z" opacity=".2"></path><path fill="#84c100" d="M38.33 56.33c-.23-.24-.54-.93-.54-1.25 0-.07.14-.2.36-.2h29.24c.22 0 .36.13.36.2 0 .32-.31 1.01-.54 1.25H38.33z"></path><path fill="#ffe200" d="M36.29 59.54c0 .94.83 2.75 1.86 2.75h29.24c1.03 0 1.86-1.81 1.86-2.75s-.83-1.7-1.86-1.7H38.15c-1.03-.01-1.86.76-1.86 1.7z"></path><path fill="#343434" d="M36.29 59.54c0 .94.83 2.75 1.86 2.75h29.24c1.03 0 1.86-1.81 1.86-2.75s-.83-1.7-1.86-1.7H38.15c-1.03-.01-1.86.76-1.86 1.7z" opacity=".2"></path><path fill="#ffe200" d="M38.33 60.79c-.23-.24-.54-.93-.54-1.25 0-.07.14-.2.36-.2h29.24c.23 0 .36.13.36.2 0 .32-.31 1.01-.54 1.25H38.33z"></path><path d="M67.03 49.43H38.47c-.49 0-.95-.2-1.27-.55-.28-.31-.41-.7-.38-1.09.29-3.05 1.76-5.93 4.14-8.1 2.67-2.46 6.24-3.81 10.06-3.81h3.44c7.46 0 13.56 5.12 14.2 11.91.04.4-.1.78-.38 1.09-.3.35-.76.55-1.25.55zm-16-12.55c-3.57 0-6.9 1.26-9.39 3.55-2.2 2.01-3.55 4.66-3.82 7.46-.01.14.06.26.12.32.13.14.32.22.53.22h28.56c.2 0 .4-.08.53-.22.06-.07.13-.18.12-.32-.59-6.27-6.27-11.01-13.21-11.01h-3.44zM63.67 69.5H42.42c-2.79 0-5.06-2.09-5.06-4.66v-1.52c0-.85.73-1.54 1.64-1.54h28.08c.9 0 1.64.69 1.64 1.54v1.52c.01 2.57-2.26 4.66-5.05 4.66zM39 62.79c-.35 0-.64.24-.64.54v1.52c0 2.02 1.82 3.66 4.06 3.66h21.25c2.24 0 4.06-1.64 4.06-3.66v-1.52c0-.3-.29-.54-.64-.54H39z"></path><path d="M67.39 53.88H38.15c-1.39 0-2.36-2.11-2.36-3.25 0-1.21 1.06-2.2 2.36-2.2h29.24c1.3 0 2.36.99 2.36 2.2.01 1.14-.97 3.25-2.36 3.25zm-29.24-4.45c-.75 0-1.36.54-1.36 1.2 0 .78.72 2.25 1.36 2.25h29.24c.64 0 1.36-1.47 1.36-2.25 0-.66-.61-1.2-1.36-1.2H38.15z"></path><path d="M67.39 58.33H38.15c-1.39 0-2.36-2.11-2.36-3.25 0-1.21 1.06-2.2 2.36-2.2h29.24c1.3 0 2.36.99 2.36 2.2.01 1.14-.97 3.25-2.36 3.25zm-29.24-4.45c-.75 0-1.36.54-1.36 1.2 0 .78.72 2.25 1.36 2.25h29.24c.64 0 1.36-1.47 1.36-2.25 0-.66-.61-1.2-1.36-1.2H38.15z"></path><path d="M67.39 62.79H38.15c-1.39 0-2.36-2.11-2.36-3.25 0-1.21 1.06-2.2 2.36-2.2h29.24c1.3 0 2.36.99 2.36 2.2.01 1.14-.97 3.25-2.36 3.25zm-29.24-4.46c-.75 0-1.36.54-1.36 1.2 0 .78.72 2.25 1.36 2.25h29.24c.64 0 1.36-1.47 1.36-2.25 0-.66-.61-1.2-1.36-1.2H38.15z"></path><path fill="#84c100" d="M48.51 56.85 44.4 60.6l-4.12-3.75"></path><path d="M44.4 61.1c-.12 0-.24-.04-.34-.13l-4.12-3.76c-.2-.19-.22-.5-.03-.71.19-.21.5-.22.71-.03l3.78 3.45 3.78-3.45c.2-.19.52-.17.71.03.19.2.17.52-.03.71l-4.11 3.75c-.11.1-.23.14-.35.14z"></path><path fill="#84c100" d="m62.21 55.96-4.11 3.75-4.12-3.75"></path><path d="M58.1 60.21c-.12 0-.24-.04-.34-.13l-4.12-3.76c-.2-.19-.22-.5-.03-.71.19-.21.5-.22.71-.03l3.78 3.45 3.78-3.45c.2-.19.52-.17.71.03.19.2.17.52-.03.71l-4.11 3.75c-.11.1-.23.14-.35.14z"></path><path fill="#ffe200" d="m57.68 60.61-4.12 3.75-4.11-3.76"></path><path d="M53.56 64.86c-.12 0-.24-.04-.34-.13l-4.12-3.76c-.2-.19-.22-.5-.03-.71.19-.21.5-.22.71-.03l3.78 3.45 3.78-3.45c.2-.19.52-.17.71.03.19.2.17.52-.03.71l-4.11 3.75c-.1.1-.22.14-.35.14z"></path></svg>