<svg xmlns="http://www.w3.org/2000/svg" xmlns:xlink="http://www.w3.org/1999/xlink" viewBox="0 0 48 48" id="no-signal"><defs><linearGradient id="b" x1="16" x2="16" y1="47" y2="1" gradientUnits="userSpaceOnUse"><stop offset="0" stop-color="#54a5ff"></stop><stop offset="1" stop-color="#8ad3fe"></stop></linearGradient><linearGradient id="a" x1="16" x2="16" y1="44" y2="4" gradientUnits="userSpaceOnUse"><stop offset="0" stop-color="#d3e6f5"></stop><stop offset="1" stop-color="#f0f7fc"></stop></linearGradient><linearGradient id="c" x1="39" x2="39" y1="37.04" y2="23.04" xlink:href="#a"></linearGradient></defs><g data-name="No Signal"><rect width="28" height="46" x="2" y="1" fill="url(#b)" rx="6"></rect><path fill="url(#a)" d="M27,7V41a3,3,0,0,1-3,3H8a3,3,0,0,1-3-3V7A3,3,0,0,1,8,4h2V5a2,2,0,0,0,2,2h8a2,2,0,0,0,2-2V4h2A3,3,0,0,1,27,7Z"></path><circle cx="19" cy="4" r="1" fill="#f0f7fc"></circle><path fill="#f0f7fc" d="M13,5h2a1,1,0,0,0,0-2H13a1,1,0,0,0,0,2Z"></path><path fill="#b4cde1" d="M23,41H9a1,1,0,0,1,0-2H23a1,1,0,0,1,0,2Z"></path><path fill="#ffb369" d="M38.89,22.68A12,12,0,0,1,22.7,32.21a8.15,8.15,0,0,0-4.9-.38l-.56.14A1,1,0,0,1,16,30.76l.14-.56a8.15,8.15,0,0,0-.38-4.9,12,12,0,1,1,23.1-2.62Z"></path><circle cx="39" cy="30.04" r="7" fill="url(#c)"></circle><path fill="#8ad3fe" d="M40.38,30l1.33-1.33a1,1,0,0,0-1.42-1.41L39,28.59l-1.33-1.33a1,1,0,0,0-1.41,0,1,1,0,0,0,0,1.41L37.55,30l-1.33,1.33a1,1,0,0,0,1.41,1.41L39,31.41l1.33,1.33a1,1,0,0,0,1.42-1.41Z"></path><circle cx="27" cy="28" r="1" fill="#f0f7fc"></circle><path fill="#f0f7fc" d="M29.83,26.17a1,1,0,0,1-.7-.29,3.08,3.08,0,0,0-4.26,0,1,1,0,1,1-1.4-1.42,5,5,0,0,1,7.06,0A1,1,0,0,1,29.83,26.17Z"></path><path fill="#f0f7fc" d="M32.66,23.34a1,1,0,0,1-.7-.29,7,7,0,0,0-9.92,0,1,1,0,1,1-1.4-1.42,9,9,0,0,1,12.73,0A1,1,0,0,1,32.66,23.34Z"></path><path fill="#f0f7fc" d="M18.51,20.51a1,1,0,0,1-.71-1.71,13,13,0,0,1,18.4,0,1,1,0,0,1-1.42,1.42,11,11,0,0,0-15.56,0A1,1,0,0,1,18.51,20.51Z"></path></g></svg>