<svg xmlns="http://www.w3.org/2000/svg" viewBox="0 0 512 512" id="food-delivery-man"><path fill="#f22e24" d="M256 507.1c92.6 0 173.5-50.1 217-124.7-43.2-75-124.2-125.5-217-125.5S82.2 307.3 39 382.4C82.5 457 163.4 507.1 256 507.1z"></path><path fill="#f4756e" d="M78.5 330.7c-15.3 15.4-28.6 32.7-39.5 51.7 10.9 18.7 24.2 35.9 39.5 51.2V330.7z"></path><path fill="#731611" d="M381.5 290.6v136c0 16.7-13.6 30.5-30.3 30.5h-246c42 31.4 94.2 50.1 150.7 50.1 92.6 0 173.5-50.2 217-124.8-21.8-38-53.4-69.8-91.4-91.8z"></path><path fill="#f29f18" d="m255.9 297.2-28.5-28.5v-39.8h56.9v39.8zM324.6 155.1h24.5c13.5 0 24.5-11 24.5-24.5s-11-24.5-24.5-24.5h-24.5v49zm-137.3 0h-24.5c-13.5 0-24.5-11-24.5-24.5s11-24.5 24.5-24.5h24.5v49z"></path><path fill="#f4bc62" d="M256 238.8c-44.4 0-80.4-36-80.4-80.4v-55.9c0-44.4 36-80.4 80.4-80.4 44.4 0 80.4 36 80.4 80.4v55.9c0 44.4-36 80.4-80.4 80.4z"></path><path fill="#f29f18" d="M255.8 22h.1c-4.2 0-8.2.4-12.2 1 38.6 5.9 68.3 39.3 68.3 79.5v55.9c0 40.3-29.6 73.7-68.2 79.6 4 .6 8.1 1 12.2 1h-.2c44.4 0 80.2-36.2 80.2-80.6v-55.9c0-44.4-35.8-80.5-80.2-80.5z"></path><path fill="#595959" d="M211 115h25v10h-25zM231 135h10v19h-10zM276 115h25v10h-25zM271 135h10v19h-10z"></path><path fill="#734b0b" d="M256 196.2c-13.5 0-24.5-11-24.5-24.5h9.8c0 8.1 6.6 14.7 14.7 14.7s14.7-6.6 14.7-14.7h9.8c0 13.5-11 24.5-24.5 24.5zM344.3 125.7h9.8v9.8h-9.8zM157.9 125.7h9.8v9.8h-9.8z"></path><path fill="#595959" d="M193.2 16.7v71c0 10.2-8.3 18.5-18.5 18.5h-12.4V47.5c.1-17 13.9-30.8 30.9-30.8zm125.2 0v71c0 10.2 8.3 18.5 18.5 18.5h12.4V47.5c-.1-17-13.9-30.8-30.9-30.8z"></path><path fill="#731611" d="M201.4 4.9h108.8c21.5 0 39 17.5 39 39v44.9H162.4V43.9c0-21.5 17.5-39 39-39z"></path><path fill="#f22e24" d="M201.4 4.9h68.4c21.5 0 39 17.5 39 39v44.4H162.4V43.9c0-21.5 17.5-39 39-39z"></path><path fill="#f22e24" d="M200.7 50H311c21.1 0 38.3 17.1 38.3 38.3H162.4c0-21.2 17.1-38.3 38.3-38.3z"></path><path fill="#f4756e" d="M200.7 50h69.9c21.1 0 38.3 17.1 38.3 38.3H162.4c0-21.2 17.1-38.3 38.3-38.3z"></path><path fill="#fff" d="M256 21.6c-15.7 0-28.4 11.4-28.4 28.4h56.9c-.1-17-12.8-28.4-28.5-28.4z"></path><path fill="#f4756e" d="M255.9 297.2 234.1 319l-51.2-51.3c14.4-4.4 29-7.5 44.6-9.2v10.2l28.4 28.5zm72.9-29.6-51.3 51.2-21.5-21.6 28.5-28.5v-10.2c14.6 1.6 30 4.7 44.3 9.1z"></path><path fill="#ebdee5" d="M382 455H130v18.5c37 21.4 80.3 33.6 126 33.6s89-12.2 126-33.6V455zM130.4 402.1h251.1v52.5H130.4z"></path><path fill="#ebdee5" d="M130.4 349.7h251.1v52.5H130.4z"></path><path fill="#fff" d="M130 473.5c10 5.6 20.4 11.5 30.9 14.5h76.3c18.7 0 33.8-14 33.8-33H130v18.5zM237.2 436H130.4v-33.8H271c0 18.6-15.1 33.8-33.8 33.8zm0-52.5H130.4v-33.8H271c0 18.7-15.1 33.8-33.8 33.8z"></path><path fill="#c6bec3" d="M291.6 349.7h-71.3c0 14.5 11.7 26.2 26.2 26.2h18.8c14.6 0 26.3-11.7 26.3-26.2zm0 104.9h-71.3c0 14.5 11.7 26.2 26.2 26.2h18.8c14.6.1 26.3-11.7 26.3-26.2zm0-52.5h-71.3c0 14.5 11.7 26.2 26.2 26.2h18.8c14.6.1 26.3-11.7 26.3-26.2z"></path><g fill="#0d0d0d"><path d="M178 397.2h9.8v9.8H178zM211 115h25v10h-25zM231 135h10v19h-10zM276 115h25v10h-25zM271 135h10v19h-10zM256 196.2c-13.5 0-24.5-11-24.5-24.5h9.8c0 8.1 6.6 14.7 14.7 14.7s14.7-6.6 14.7-14.7h9.8c0 13.5-11 24.5-24.5 24.5zM344.3 125.7h9.8v9.8h-9.8zM157.9 125.7h9.8v9.8h-9.8zM349.2 93.7H162.4c-2.7 0-4.9-2.2-4.9-4.9V43.2c0-23.8 19.4-43.2 43.2-43.2h7.3v9.8h-7.3c-18.4 0-33.3 15-33.3 33.3v40.7h177V43.2c0-18.4-15-33.3-33.3-33.3h-83.4V0h83.4c23.8 0 43.2 19.4 43.2 43.2v45.6c-.2 2.7-2.4 4.9-5.1 4.9z"></path><path d="M349.2 93.2H162.4c-2.7 0-4.9-2.2-4.9-4.9 0-23.8 19.4-43.2 43.2-43.2H311c23.8 0 43.2 19.4 43.2 43.2-.1 2.7-2.3 4.9-5 4.9zm-181.5-9.8h176.2c-2.4-16.1-16.3-28.4-33-28.4H200.7c-16.8-.1-30.7 12.3-33 28.4z"></path><path d="M284.4 55h-56.9c-2.7 0-4.9-2.2-4.9-4.9 0-19 14.3-33.4 33.3-33.4s33.3 14.4 33.3 33.4c.1 2.7-2.1 4.9-4.8 4.9zm-51.5-10H279c-2.1-11-11.3-18.6-23.1-18.6-11.6 0-20.8 7.6-23 18.6zm1.2 278.9c-1.3 0-2.5-.5-3.5-1.4l-51.2-51.3c-1.2-1.2-1.7-3-1.3-4.7.4-1.7 1.7-3 3.3-3.5 15.2-4.6 30.1-7.7 45.5-9.4 1.4-.2 2.5.3 3.6 1.2 1 .9 1.4 2.3 1.4 3.7v8.2l27 27c.5.5 1 1 1.3 1.7.8 1.8.4 3.9-1 5.3l-21.7 21.8c-.9.8-2.1 1.4-3.4 1.4zm-41.7-53.8 41.8 41.9 14.8-14.8-24.7-25.1c-.9-.9-1.3-2.2-1.3-3.5V264c-11 1.4-20.5 3.4-30.6 6.1z"></path><path d="M277.5 324c-1.3 0-2.6-.7-3.5-1.6l-21.6-21.7c-1.9-1.9-1.7-5.1.2-7l27.3-27.1v-8.2c0-1.4.4-2.7 1.4-3.7 1-.9 2.3-1.4 3.7-1.2 15.4 1.8 31 5 45.1 9.3 1.6.5 2.9 1.8 3.3 3.5.4 1.7-.1 3.4-1.3 4.7L281 322.4c-.9.9-2.2 1.6-3.5 1.6zm-14.6-26.8 14.6 14.7 41.7-41.9c-9.7-2.6-19.2-4.6-30.2-6v4.7c0 1.3-.3 2.5-1.3 3.5l-24.8 25zm2.5 188.6h-18.8c-17.2 0-31.1-14-31.1-31.1 0-2.7 2.2-4.9 4.9-4.9h71.3c2.7 0 4.9 2.2 4.9 4.9-.1 17.1-14 31.1-31.2 31.1zm-39.6-26.3c2.2 9.4 10.7 16.4 20.8 16.4h18.8c10.1 0 18.5-7 20.8-16.4h-60.4z"></path><path d="M381.5 459.5H130.4c-2.7 0-4.9-2.2-4.9-4.9v-52.5c0-2.7 2.2-4.9 4.9-4.9h32.8v9.8h-27.9v42.7h241.3V407H202.5v-9.8h179c2.7 0 4.9 2.2 4.9 4.9v52.5c0 2.7-2.2 4.9-4.9 4.9z"></path><path d="M265.4 433.3h-18.8c-17.2 0-31.1-14-31.1-31.1 0-2.7 2.2-4.9 4.9-4.9h71.3c2.7 0 4.9 2.2 4.9 4.9-.1 17.1-14 31.1-31.2 31.1zM225.8 407c2.2 9.4 10.7 16.4 20.8 16.4h18.8c10.1 0 18.5-7 20.8-16.4h-60.4z"></path><path d="M386.4 402.1h-9.8v-47.6H135.3v47.6h-9.8v-52.5c0-2.7 2.2-4.9 4.9-4.9h251.1c2.7 0 4.9 2.2 4.9 4.9v52.5z"></path><path d="M265.4 380.8h-18.8c-17.2 0-31.1-14-31.1-31.1 0-2.7 2.2-4.9 4.9-4.9h71.3c2.7 0 4.9 2.2 4.9 4.9-.1 17.1-14 31.1-31.2 31.1zm-39.6-26.2c2.2 9.4 10.7 16.4 20.8 16.4h18.8c10.1 0 18.5-7 20.8-16.4h-60.4zM256 243.7c-10.4 0-20.5-1.8-30.2-5.4-32.5-12.3-54.5-43.3-55.1-78.3h-7.9c-7.9 0-15.3-3.1-20.8-8.6-5.6-5.6-8.5-13-8.5-20.9 0-16.2 13.5-29.5 29.5-29.5v9.8c-11 0-19.7 8.8-19.7 19.7 0 5.3 2 10.2 5.7 13.9 3.6 3.7 8.5 5.6 13.8 5.6h12.8c2.7 0 4.4 2.3 4.4 5v3.4c0 31.2 19.8 59.6 49 70.7 8.5 3.2 17.6 4.9 26.8 4.9s18.2-1.6 26.8-4.9c10.1-3.8 19.3-9.6 27-17.3 14.3-14.3 22.4-33.2 22.4-53.4V155c0-2.7 1.7-5 4.4-5h12.8c10.8 0 19.6-8.7 19.6-19.5 0-5.3-2.1-10.2-5.8-13.9-3.7-3.7-9-5.8-14-5.8V101c8 0 15.3 3.1 20.9 8.7 5.6 5.6 8.7 13 8.7 20.9 0 16.2-13.2 29.4-29.4 29.4h-7.9c-.4 22-9.2 43-25 58.8-8.6 8.6-18.8 15.2-30.2 19.5-9.6 3.6-19.7 5.4-30.1 5.4z"></path><path d="M171 135h9v20h-9zM332 135h9v20h-9zM256 302.1c-1.3 0-2.6-.5-3.5-1.4l-28.3-28.5c-.9-.9-1.3-2.2-1.3-3.5v-35c0-1.6.6-3.1 1.9-4 1.3-.9 2.9-1.1 4.4-.6 8.5 3.2 17.5 4.9 26.7 4.9s18.1-1.6 26.7-4.9c1.5-.6 3-.4 4.3.6 1.3.9 1.9 2.4 1.9 4v35c0 1.3-.3 2.5-1.3 3.5l-28.4 28.5c-.6.9-1.8 1.4-3.1 1.4zm-24-35.5 24 23.6 24-23.6v-26.2c-8 2.2-16 3.3-24 3.3s-16-1.1-24-3.3v26.2z"></path><path d="M256 512c-45.6 0-90.3-12.1-129.4-35.1-37.9-22.3-69.7-54.1-91.9-92.1-.9-1.5-.9-3.4 0-4.9 19.6-34.1 47.3-63.6 80.1-85.4 33.5-22.3 72.3-36.4 112.2-41 1.4-.2 2.6.3 3.6 1.2 1 .9 1.4 2.3 1.4 3.7v8.2l24 23.6 24-23.6v-8.2c0-1.4.4-2.7 1.4-3.7 1-.9 2.3-1.4 3.7-1.2 39.9 4.5 78.7 18.7 112.1 41 32.8 21.8 60.4 51.3 80 85.4.9 1.5.9 3.4 0 4.9-22.2 38-53.9 69.8-91.9 92.1-39 23-83.7 35.1-129.3 35.1zM44.8 382.3c44.3 74 125 119.9 211.2 119.9s166.8-45.9 211.1-119.9C429.1 317.9 363 274 289 264v4.7c0 1.3-.3 2.5-1.3 3.5l-28.4 28.5c-.9.9-2.1 1.4-3.4 1.4-1.3 0-2.5-.5-3.5-1.4l-28.3-28.5c-.9-.9-1.2-2.2-1.2-3.5V264C149 274 83 317.9 44.8 382.3z"></path><path d="M256 512c-45 0-89-11.8-127.8-34.3-1.5-.9-2.2-2.5-2.2-4.2v-18.4c0-2.7 1.7-5.1 4.4-5.1h251.1c2.7 0 4.5 2.4 4.5 5.1v18.4c0 1.8-.7 3.4-2.2 4.2C345 500.2 301 512 256 512zm-121-41.4c37 20.6 78.7 31.6 121 31.6s84-10.9 121-31.6V460H135v10.6zM175.1 111h-12.7c-2.7 0-4.9-2.2-4.9-4.9V88.8h9.8v12.4h7.8c7.3 0 13.2-5.9 13.2-13.2h9.8c0 12.7-10.3 23-23 23zm174.1 0h-12.7c-12.7 0-23-10.3-23-23h9.8c0 7.3 5.9 13.2 13.2 13.2h7.8V88.8h9.8v17.3c0 2.7-2.2 4.9-4.9 4.9z"></path></g></svg>