<svg xmlns="http://www.w3.org/2000/svg" width="1500" height="1500" fill="none" viewBox="0 0 1500 1500" id="food-delivery"><g clip-path="url(#clip0_1860_1029)"><g opacity=".9"><path fill="#F7F8FB" fill-rule="evenodd" d="M987.884 122.878C987.884 112.583 996.231 104.236 1006.53 104.236H1161.17C1164.28 104.236 1167.34 105.014 1170.07 106.498L1371.48 215.92C1377.48 219.182 1381.22 225.467 1381.22 232.3V710.397C1403.29 706.014 1425.77 702.795 1448.6 700.808C1452.52 681.479 1461.64 664.037 1474.43 650.006V311.158C1474.43 300.863 1482.78 292.517 1493.07 292.517H1770.83C1781.13 292.517 1789.47 300.863 1789.47 311.158V747.373H1834.21C1838.33 747.373 1841.67 750.711 1841.67 754.829V798.185C1865.05 813.326 1887.36 829.99 1908.46 848.037H1927.42V521.809C1927.42 511.513 1935.77 503.167 1946.06 503.167H2173.49C2183.79 503.167 2192.13 511.513 2192.13 521.809V1517.27H1841.67V1509.82C1841.67 1513.93 1838.33 1517.27 1834.21 1517.27H1088.55V1521H669.112V1517.27H603.866V788.384C603.866 778.089 612.213 769.743 622.508 769.743H669.112V352.17C669.112 341.875 677.459 333.528 687.753 333.528H987.884V122.878ZM1447.75 705.562C1446.91 710.986 1446.47 716.545 1446.47 722.206C1446.47 730.874 1447.5 739.301 1449.44 747.373H1381.22V715.15C1403.01 710.787 1425.21 707.569 1447.75 705.562ZM1841.67 848.037V803.746C1862.43 817.329 1882.32 832.127 1901.25 848.037H1841.67Z" clip-rule="evenodd"></path><path fill="#F7F8FB" d="M242.218 527.401C231.923 527.401 223.577 535.748 223.577 546.043V1521H279.502V1517.27H574.039V546.043C574.039 535.748 565.692 527.401 555.398 527.401H242.218zM508.443 347.242H260.509C266.562 325.689 286.406 309.882 309.952 309.882 317.588 309.882 324.834 311.544 331.348 314.526 343.869 293.91 366.577 280.132 392.512 280.132 421.481 280.132 446.421 297.321 457.641 322.029 459.716 321.774 461.828 321.644 463.971 321.644 482.975 321.644 499.566 331.939 508.443 347.242zM2138.07 367.083H1890.14C1899.02 351.78 1915.61 341.485 1934.61 341.485 1936.75 341.485 1938.87 341.616 1940.94 341.87 1952.16 317.162 1977.1 299.973 2006.07 299.973 2032 299.973 2054.71 313.751 2067.23 334.367 2073.75 331.386 2080.99 329.723 2088.63 329.723 2112.18 329.723 2132.02 345.53 2138.07 367.083zM1.39062 182.863H249.324C240.448 167.561 223.856 157.265 204.852 157.265 202.709 157.265 200.598 157.396 198.522 157.65 187.303 132.942 162.362 115.754 133.393 115.754 107.459 115.754 84.75 129.531 72.2288 150.147 65.7152 147.166 58.4697 145.503 50.8328 145.503 27.2868 145.503 7.44369 161.31 1.39062 182.863z"></path></g><path fill="#71BC75" d="M969.922 717.492L972.175 716.449L985.378 718.534L972.175 1223.73H823.465L915.57 785.764C921.892 755.702 942.041 730.392 969.922 717.492Z"></path><path fill="#4A8A48" d="M963.141 1197.33L972.87 830.414L890.176 1176.48L963.141 1197.33Z"></path><path fill="#71BC75" d="M1152.97 677.535H1139.23C1087.71 677.535 1036.75 688.142 989.508 708.696L970.091 717.145L963.142 1081.28L912.414 1452.36L1374.53 1439.85L1392.3 787.516C1392.9 765.45 1380.39 745.118 1360.42 735.71L1312.89 713.32C1262.87 689.755 1208.26 677.535 1152.97 677.535Z"></path><path fill="#4A8A48" d="M1203.58 1372.44L1293.22 805.397L1388.43 972.87L1378.7 1298.09L1203.58 1372.44Z"></path><path fill="#000" d="M1286.99 536.522L1289.75 430.148V425.979H1189.68V590.672H1231.41C1261.55 590.672 1286.2 566.653 1286.99 536.522Z"></path><path fill="#F5F5F6" d="M1056.95 466.977H953.412L961.751 446.825L1056.95 419.724V466.977Z"></path><path fill="#F5D1C5" d="M1033.33 595.535V426.673H1240.41V710.89H1088.23V637.23H1075.02C1052 637.23 1033.33 618.563 1033.33 595.535Z"></path><path fill="#fff" d="M1074.33 671.53C1074.33 665.897 1079.8 661.884 1085.17 663.577L1091.6 665.602C1137.8 680.153 1187.36 680.153 1233.56 665.602L1239.99 663.577C1245.36 661.884 1250.83 665.897 1250.83 671.53V701.299C1250.83 704.939 1248.47 708.159 1245 709.252L1233.56 712.856C1187.36 727.407 1137.8 727.407 1091.6 712.856L1080.16 709.252C1076.69 708.159 1074.33 704.939 1074.33 701.299V671.53Z"></path><path stroke="#7FA7D3" stroke-width="1.39" d="M1245 709.254L1233.56 712.858C1187.36 727.409 1137.8 727.409 1091.6 712.858L1080.16 709.254"></path><path fill="#EB9B80" d="M1136.17 637.23H1088.22V661.552L1136.17 637.23Z"></path><path fill="#667CC5" d="M911.718 1442.63H1122.97L1121.58 1555.2H897.82L911.718 1442.63Z"></path><path fill="#B6B6B6" d="M1161.89 1475.98H1116.72L1092.39 1555.2H1147.99L1161.89 1475.98Z"></path><path fill="#667CC5" d="M1116.93 1434.29H1367.21L1370.36 1555.2H1122.97L1116.93 1434.29Z"></path><rect width="503.113" height="77.83" x="889.482" y="1364.8" fill="#4A8A48" rx="13.898"></rect><path fill="#000" d="M1182.04 453.735V424.589H1262.65V517.706H1223.94C1217.04 517.706 1211.18 512.64 1210.19 505.809L1206.36 479.487C1192.71 478.706 1182.04 467.409 1182.04 453.735Z"></path><path fill="#fff" fill-rule="evenodd" d="M1137.56 731.444V675.45L1151.46 676.84V733.421L1146.9 749.12C1145.76 753.066 1145.12 757.142 1145 761.249L1123.67 1442.63H1109.07L1131.1 760.84C1131.26 755.559 1132.08 750.319 1133.56 745.245L1137.56 731.444Z" clip-rule="evenodd"></path><path fill="#000" d="M1082.83 1071.55H772.578L742.162 1442.63H1082.83V1071.55Z"></path><path fill="#783B36" d="M787.787 1071.55H772.579L742.162 1442.63H787.787V1071.55Z"></path><path fill="#D45F3F" d="M802.994 1071.55H1082.83L1113.24 1442.63H833.411L802.994 1071.55Z"></path><path fill="#783B36" d="M787.787 1406.13L833.411 1442.63H742.162L787.787 1406.13Z"></path><rect width="127.749" height="24.333" x="888.16" y="1101.96" fill="#D45F3F" rx="12.167"></rect><path fill="#D45F3F" fill-rule="evenodd" d="M977.27 1126.46H1006.46C1013.18 1126.46 1018.62 1121.01 1018.62 1114.29C1018.62 1107.57 1013.18 1102.12 1006.46 1102.12H977.27C983.989 1102.12 989.436 1107.57 989.436 1114.29C989.436 1121.01 983.989 1126.46 977.27 1126.46Z" clip-rule="evenodd"></path><path fill="#D45F3F" d="M802.986 1083.71H1082.82L1113.23 1454.79H833.403L802.986 1083.71Z"></path><path fill="#D45F3F" d="M802.994 1071.55H1082.83L1113.24 1442.63H833.411L802.994 1071.55Z"></path><path fill="#D45F3F" fill-rule="evenodd" d="M999.275 1135.78H1026.82C1032.66 1135.78 1037.4 1131.04 1037.4 1125.2C1037.4 1119.36 1032.66 1114.63 1026.82 1114.63H999.275C1005.11 1114.63 1009.85 1119.36 1009.85 1125.2C1009.85 1131.04 1005.11 1135.78 999.275 1135.78Z" clip-rule="evenodd"></path><circle cx="1150.77" cy="275.184" r="9.729" fill="#000"></circle><path fill="#71BC75" d="M1027.07 407.216V412.775V435.707H1293.92V407.216C1293.92 333.529 1234.18 273.794 1160.49 273.794C1086.81 273.794 1027.07 333.529 1027.07 407.216Z"></path><path fill="#71BC75" d="M1139.65 275.413C1075.86 285.421 1027.07 340.621 1027.07 407.216V435.707H1252.22V407.216C1252.22 340.621 1203.43 285.421 1139.65 275.413Z"></path><path fill="#4A8A48" d="M1295.31 446.131H1181.86C1181.2 446.131 1180.64 445.67 1180.5 445.026L1176.13 424.179C1175.95 423.315 1176.61 422.504 1177.49 422.504H1295.31C1296.07 422.504 1296.7 423.126 1296.7 423.894V444.741C1296.7 445.509 1296.07 446.131 1295.31 446.131Z"></path><ellipse cx="1236.24" cy="523.96" fill="#F5D1C5" rx="31.271" ry="30.576"></ellipse><path stroke="#EB9B80" stroke-linecap="round" stroke-width="2.78" d="M1228.6 532.3L1250.83 510.062"></path><path fill="#F5D1C5" d="M756.877 1242.33L763.584 1247.68C764.318 1248.26 765.189 1248.65 766.114 1248.81 771.018 1249.65 775.714 1246.48 776.766 1241.62L779.156 1230.57C779.69 1228.1 780.022 1225.59 780.147 1223.06L782.925 1167.09 780.921 1129.3C780.351 1118.54 770.504 1110.7 759.891 1112.56 757.91 1112.9 756.373 1114.48 756.075 1116.47L742.633 1206.08C740.57 1219.84 745.998 1233.66 756.877 1242.33zM1064.6 1434.98L1026.38 1366.88 1013.18 1370.36 991.991 1362.14C975.983 1355.92 958.002 1357.46 943.277 1366.29L893.687 1396.05C890.022 1398.25 889.199 1403.21 891.948 1406.48 897.486 1413.08 906.711 1415.26 914.608 1411.83L949.575 1396.65C952.328 1395.45 955.527 1396 957.721 1398.05 961.228 1401.32 960.827 1407 956.895 1409.74L913.804 1439.85 858.836 1445.4C850.984 1446.19 845.008 1452.8 845.008 1460.7L896.431 1464.17 900.435 1466.92C905.069 1470.11 910.56 1471.81 916.183 1471.81H982.118C997.868 1471.81 1013.3 1467.35 1026.62 1458.95L1064.6 1434.98z"></path><path fill="#EB9B80" d="M1050.01 1359.93L1022.21 1366.88L1024.1 1382.31C1025.6 1394.57 1029.81 1406.35 1036.42 1416.79L1052.78 1442.63L1069.46 1432.2L1050.01 1359.93Z"></path><path fill="#4A8A48" d="M1025.47 1354.65L1053.48 1334.22L1113.24 1423.17L1078.76 1442.26C1076.08 1443.74 1072.77 1443.45 1070.39 1441.52C1048.95 1424.12 1033.15 1400.74 1025 1374.36L1022.08 1364.87C1020.91 1361.08 1022.27 1356.98 1025.47 1354.65Z"></path><path fill="#71BC75" d="M1355.05 732.439L1342.56 726.873L1315.17 745.745C1293.1 760.949 1279.68 785.833 1279.1 812.627L1271.83 1151.59C1271.73 1155.89 1269.66 1159.91 1266.2 1162.47L1053.22 1320.11C1046.12 1325.36 1042.56 1334.14 1043.98 1342.85C1049.16 1374.62 1067.11 1402.89 1093.66 1421.09L1098.43 1424.36C1107.7 1430.71 1119.99 1430.46 1129 1423.74L1362.49 1249.44C1394.12 1225.83 1412.75 1188.67 1412.75 1149.2V821.305C1412.75 782.89 1390.14 748.073 1355.05 732.439Z"></path><path stroke="#09002C" stroke-linecap="round" stroke-width="4.169" d="M1029.85 469.787C1039.08 460.56 1054.04 460.56 1063.27 469.787M1124.36 471.176C1133.59 461.95 1148.55 461.95 1157.78 471.176"></path><circle cx="1049.31" cy="483.655" r="6.949" fill="#09002C"></circle><circle cx="1138.26" cy="485.046" r="6.949" fill="#09002C"></circle><path stroke="#EB9B80" stroke-linecap="round" stroke-linejoin="round" stroke-width="4.169" d="M1081.28 501.723L1079.43 510.128C1077.73 517.885 1075.08 525.405 1071.55 532.519L1068.77 538.127L1086.84 540.637"></path><path stroke="#E18274" stroke-linecap="round" stroke-width="4.169" d="M1104.29 560.562C1097.07 573.071 1081.07 577.357 1068.56 570.135"></path><path fill="#4A8A48" d="M1218.28 440.662C1175.82 368.315 1083.74 366.84 1036.88 385.879C1009.55 403.034 956.328 433.835 948.708 461.519C946.93 467.976 954.544 469.847 959.353 465.185C1007.3 418.703 1058.91 434.075 1094.04 475.211C1097.65 479.441 1103.05 481.356 1108.38 479.768C1132.05 472.714 1196.91 452.816 1215.76 447.032C1218.46 446.204 1219.71 443.097 1218.28 440.662Z"></path><rect width="418.334" height="678.23" x="116.744" y="490.604" fill="#8FABE4" opacity=".2" rx="6.713"></rect><rect width="422.641" height="684.473" x="72.133" y="453.08" fill="#D5E0F7" rx="20.617"></rect><circle cx="215.421" cy="1045.14" r="22.237" fill="#0AEC99" opacity=".2"></circle><path fill="#F7FAFF" fill-rule="evenodd" d="M309.224 453.08H288.608V494.313H176.247V632.445H72.1328V653.062H116.459V723.305L208.056 814.902H284.484V906.646H72.1328V927.263H170.838L102.523 1022.1H72.1328V1042.72H111.244L112.454 1043.59L113.081 1042.72H146.353V1137.55H166.969V1022.1H127.932L196.247 927.263H284.484V1137.55H305.101V977.774H418.493V906.646H494.774V886.03H418.493V814.902H494.774V794.286H475.188V728.312H494.774V707.696H330.872V583.076L494.774 609.406V588.525L309.224 558.718V453.08ZM305.101 920.204V957.157H397.876V814.902H378.812L305.101 920.204ZM353.646 814.902L305.101 884.253V814.902H353.646ZM310.255 728.312H454.572V794.286H216.596L137.075 714.765V698.418H310.255V728.312ZM310.255 677.802V579.765L288.608 576.287V514.93H196.864V653.062H137.075V677.802H310.255Z" clip-rule="evenodd"></path><path fill="#fff" d="M56.9824 971.727C56.9824 952.94 72.2126 937.71 90.9999 937.71H241.501C260.289 937.71 275.519 952.94 275.519 971.727V971.727C275.519 990.515 260.289 1005.74 241.501 1005.74H222.431L216.302 1018.77C215.202 1021.11 212.248 1021.87 210.155 1020.35L189.96 1005.74H90.9999C72.2126 1005.74 56.9824 990.515 56.9824 971.727V971.727Z"></path><rect width="74.22" height="8.247" x="129.141" y="954.203" fill="#F1F1F1" rx="4.123"></rect><rect width="125.762" height="6.185" x="129.141" y="976.881" fill="#F1F1F1" rx="3.092"></rect><circle cx="94.094" cy="971.313" r="18.555" fill="#DEB10F"></circle><path fill="#000" d="M288.883 564.677C288.883 545.889 304.113 530.659 322.9 530.659H473.402C492.189 530.659 507.419 545.889 507.419 564.677V564.677C507.419 583.464 492.189 598.694 473.402 598.694H454.331L448.203 611.718C447.102 614.056 444.148 614.817 442.055 613.303L421.86 598.694H322.9C304.113 598.694 288.883 583.464 288.883 564.677V564.677Z"></path><path stroke="#C0D7DD" stroke-width="2.954" d="M209.232 1045.81H432.067C436.525 1045.81 440.139 1042.19 440.139 1037.74V850.428C440.139 848.154 439.18 845.985 437.497 844.456L397.424 808.026C395.742 806.496 394.782 804.328 394.782 802.054V714.969C394.782 713.579 395.141 712.213 395.824 711.003L440.139 632.444"></path><circle cx="215.593" cy="1044.78" r="16.999" fill="#19A672"></circle><circle cx="215.593" cy="1044.78" r="7.083" fill="#3CD99F"></circle><circle cx="438.486" cy="634.451" r="10.424" fill="#19A672"></circle><circle cx="328.055" cy="563.646" r="18.555" fill="#3160EC"></circle><rect width="74.22" height="8.247" x="361.043" y="549.215" fill="#F1F1F1" rx="4.123"></rect><rect width="125.762" height="6.185" x="361.043" y="571.893" fill="#F1F1F1" rx="3.092"></rect><path stroke="#fff" stroke-width="2.78" d="M1164.66 899.21V972.87C1164.66 980.546 1170.89 986.768 1178.56 986.768H1232.76"></path><path stroke="#fff" stroke-width="2.78" d="M1250.83 899.21V972.87C1250.83 980.546 1244.61 986.768 1236.94 986.768H1188.29"></path><path stroke="#fff" stroke-width=".695" d="M1170.22 899.21H1248.05"></path><path stroke="#fff" stroke-linecap="round" stroke-linejoin="round" stroke-width="5.559" d="M1277.24 840.838C1277.24 833.472 1277.24 826.871 1277.24 820.954C1277.24 795.181 1301.68 763.416 1326.58 756.754V756.754"></path><path stroke="#EB9B80" stroke-linecap="round" stroke-width="1.39" d="M896.43 1464.17H966.615"></path><path stroke="#000" stroke-linecap="round" stroke-width="5.559" d="M507.283 821.381H690.688L796.365 1036.8"></path><circle cx="796.364" cy="1039.58" r="8.339" fill="#000"></circle><rect width="120.572" height="21.143" x="888.092" y="1116.02" fill="#fff" rx="10.572"></rect></g><defs><clipPath id="clip0_1860_1029"><rect width="1500" height="1500" fill="#fff"></rect></clipPath></defs></svg>